<svg xmlns="http://www.w3.org/2000/svg" width="76.182" height="73.816" viewBox="0 0 76.182 73.816"><defs><style>.a{fill:#fff;stroke:#f8f8f8;}</style></defs><g transform="translate(168.482 -429.862)"><g transform="translate(-134.251 459.183)"><path class="a" d="M-128.438,466.626q.617.188,1.226.416a4.4,4.4,0,0,1,1.093.587,2.84,2.84,0,0,1,.785.9,2.721,2.721,0,0,1,.3,1.342,4.172,4.172,0,0,1-.266,1.5,3.615,3.615,0,0,1-.78,1.234,4.041,4.041,0,0,1-1.259.875,4.844,4.844,0,0,1-1.706.4l-.1,1.26a.559.559,0,0,1-.167.364.528.528,0,0,1-.4.167h-.78l.155-1.834a6.535,6.535,0,0,1-1.887-.549,5.3,5.3,0,0,1-1.5-1.019l.651-.97a.676.676,0,0,1,.227-.21.612.612,0,0,1,.3-.081.776.776,0,0,1,.4.133c.142.089.305.191.488.308s.391.235.625.356a2.953,2.953,0,0,0,.832.266l.317-3.831q-.609-.171-1.205-.4a4.075,4.075,0,0,1-1.071-.613,2.849,2.849,0,0,1-.767-.964,3.25,3.25,0,0,1-.291-1.457,3.3,3.3,0,0,1,.257-1.273,3.3,3.3,0,0,1,.759-1.111,4.08,4.08,0,0,1,1.23-.805,4.708,4.708,0,0,1,1.672-.36l.094-1.079a.6.6,0,0,1,.171-.369.532.532,0,0,1,.4-.162h.78l-.137,1.68a4.677,4.677,0,0,1,1.569.519,5.58,5.58,0,0,1,1.14.836l-.515.78a.921.921,0,0,1-.231.257.488.488,0,0,1-.291.086.778.778,0,0,1-.308-.081c-.12-.055-.255-.12-.4-.2s-.316-.156-.5-.235a3.588,3.588,0,0,0-.613-.2Zm-1-3.592a3.037,3.037,0,0,0-.813.2,1.757,1.757,0,0,0-.548.347,1.258,1.258,0,0,0-.313.463,1.491,1.491,0,0,0-.1.541,1.317,1.317,0,0,0,.115.569,1.479,1.479,0,0,0,.317.438,2.3,2.3,0,0,0,.476.343,5.239,5.239,0,0,0,.6.279Zm.549,9.061a2.232,2.232,0,0,0,1.376-.613,1.8,1.8,0,0,0,.468-1.291,1.327,1.327,0,0,0-.116-.57,1.355,1.355,0,0,0-.326-.432,2.085,2.085,0,0,0-.492-.326,6.271,6.271,0,0,0-.617-.257Z" transform="translate(133.727 -459.631)"/></g><g transform="translate(-147.475 449.637)"><path class="a" d="M-126.262,488.391a17.581,17.581,0,0,1-17.562-17.561,17.59,17.59,0,0,1,.729-5.022,17.5,17.5,0,0,1,1.9-4.224,17.628,17.628,0,0,1,6.85-6.349l.558,1.073a16.435,16.435,0,0,0-6.38,5.914,16.386,16.386,0,0,0-1.768,3.931,16.4,16.4,0,0,0-.678,4.677,16.369,16.369,0,0,0,16.351,16.35,16.369,16.369,0,0,0,16.35-16.35,16.368,16.368,0,0,0-16.35-16.35v-1.211A17.581,17.581,0,0,1-108.7,470.83,17.581,17.581,0,0,1-126.262,488.391Z" transform="translate(143.824 -453.269)"/></g><g transform="translate(-114.51 430.686)"><path class="a" d="M-102.824,452.4a10.868,10.868,0,0,1-10.855-10.855,10.868,10.868,0,0,1,10.855-10.855,10.868,10.868,0,0,1,10.855,10.855A10.868,10.868,0,0,1-102.824,452.4Zm0-20.726a9.882,9.882,0,0,0-9.871,9.871,9.882,9.882,0,0,0,9.871,9.871,9.882,9.882,0,0,0,9.871-9.871A9.882,9.882,0,0,0-102.824,431.676Z" transform="translate(113.679 -430.691)"/><g transform="translate(6.624 3.929)"><path class="a" d="M-102.721,443.141a4.236,4.236,0,0,1-4.231-4.23,4.235,4.235,0,0,1,4.231-4.23,4.234,4.234,0,0,1,4.23,4.23A4.235,4.235,0,0,1-102.721,443.141Zm0-7.476a3.249,3.249,0,0,0-3.247,3.246,3.249,3.249,0,0,0,3.247,3.246,3.248,3.248,0,0,0,3.246-3.246A3.249,3.249,0,0,0-102.721,435.666Z" transform="translate(106.952 -434.681)"/></g><g transform="translate(4.883 11.405)"><path class="a" d="M-97.392,450.63c-.008-.073-.83-7.372-5.372-7.372s-4.968,7.274-4.972,7.347l-.984-.051c.018-.339.5-8.28,5.955-8.28,5.429,0,6.317,7.917,6.351,8.255Z" transform="translate(108.72 -442.273)"/></g></g><g transform="translate(-167.982 430.362)"><path class="a" d="M-157.127,452.073a10.867,10.867,0,0,1-10.855-10.854,10.868,10.868,0,0,1,10.855-10.856,10.868,10.868,0,0,1,10.854,10.856A10.867,10.867,0,0,1-157.127,452.073Zm0-20.726A9.882,9.882,0,0,0-167,441.218a9.881,9.881,0,0,0,9.871,9.87,9.88,9.88,0,0,0,9.87-9.87A9.881,9.881,0,0,0-157.127,431.347Z" transform="translate(167.982 -430.362)"/><g transform="translate(6.624 3.929)"><path class="a" d="M-157.024,442.812a4.234,4.234,0,0,1-4.231-4.23,4.235,4.235,0,0,1,4.231-4.23,4.235,4.235,0,0,1,4.23,4.23A4.234,4.234,0,0,1-157.024,442.812Zm0-7.476a3.249,3.249,0,0,0-3.247,3.246,3.249,3.249,0,0,0,3.247,3.246,3.249,3.249,0,0,0,3.246-3.246A3.249,3.249,0,0,0-157.024,435.337Z" transform="translate(161.255 -434.352)"/></g><g transform="translate(4.883 11.405)"><path class="a" d="M-151.7,450.3c-.008-.074-.829-7.373-5.372-7.373s-4.969,7.275-4.972,7.348l-.984-.051c.018-.339.5-8.281,5.955-8.281,5.429,0,6.316,7.918,6.351,8.256Z" transform="translate(163.023 -441.944)"/></g></g><g transform="translate(-114.51 481.468)"><path class="a" d="M-102.824,503.972a10.869,10.869,0,0,1-10.855-10.856,10.868,10.868,0,0,1,10.855-10.854,10.868,10.868,0,0,1,10.855,10.854A10.869,10.869,0,0,1-102.824,503.972Zm0-20.726a9.881,9.881,0,0,0-9.871,9.87,9.882,9.882,0,0,0,9.871,9.872,9.882,9.882,0,0,0,9.871-9.872A9.881,9.881,0,0,0-102.824,483.247Z" transform="translate(113.679 -482.262)"/><g transform="translate(6.624 3.928)"><path class="a" d="M-102.721,494.712a4.237,4.237,0,0,1-4.231-4.231,4.236,4.236,0,0,1,4.231-4.23,4.235,4.235,0,0,1,4.23,4.23A4.236,4.236,0,0,1-102.721,494.712Zm0-7.477a3.249,3.249,0,0,0-3.247,3.246,3.25,3.25,0,0,0,3.247,3.247,3.249,3.249,0,0,0,3.246-3.247A3.249,3.249,0,0,0-102.721,487.236Z" transform="translate(106.952 -486.251)"/></g><g transform="translate(4.883 11.405)"><path class="a" d="M-97.392,502.2c-.008-.073-.83-7.371-5.372-7.371s-4.968,7.273-4.972,7.347l-.984-.052c.018-.339.5-8.279,5.955-8.279,5.429,0,6.317,7.917,6.351,8.255Z" transform="translate(108.72 -493.844)"/></g></g><g transform="translate(-167.982 481.144)"><path class="a" d="M-157.127,503.643a10.867,10.867,0,0,1-10.855-10.854,10.867,10.867,0,0,1,10.855-10.855,10.867,10.867,0,0,1,10.854,10.855A10.867,10.867,0,0,1-157.127,503.643Zm0-20.725A9.881,9.881,0,0,0-167,492.788a9.881,9.881,0,0,0,9.871,9.87,9.88,9.88,0,0,0,9.87-9.87A9.881,9.881,0,0,0-157.127,482.918Z" transform="translate(167.982 -481.933)"/><g transform="translate(6.624 3.928)"><path class="a" d="M-157.024,494.383a4.235,4.235,0,0,1-4.231-4.23,4.236,4.236,0,0,1,4.231-4.231,4.236,4.236,0,0,1,4.23,4.231A4.235,4.235,0,0,1-157.024,494.383Zm0-7.477a3.25,3.25,0,0,0-3.247,3.246,3.25,3.25,0,0,0,3.247,3.246,3.25,3.25,0,0,0,3.246-3.246A3.249,3.249,0,0,0-157.024,486.907Z" transform="translate(161.255 -485.922)"/></g><g transform="translate(4.883 11.405)"><path class="a" d="M-151.7,501.872c-.008-.073-.829-7.372-5.372-7.372s-4.969,7.274-4.972,7.348l-.984-.052c.018-.339.5-8.28,5.955-8.28,5.429,0,6.316,7.918,6.351,8.255Z" transform="translate(163.023 -493.515)"/></g></g><g transform="translate(-104.331 460.158)"><path class="a" d="M-96.573,472.324h-2.093v-1.95h2.093Zm0-4.876h-2.093V465.5h2.093Zm-4.674,0h-2.094V465.5h2.094Zm4.674-4.876h-2.093v-1.951h2.093Z" transform="translate(103.342 -460.621)"/></g><g transform="translate(-135.757 493.494)"><path class="a" d="M-135.256,501.244v-2.094h1.951v2.094Zm4.876,0v-2.094h1.951v2.094Zm0-4.674v-2.094h1.951v2.094Zm4.876,4.674v-2.094h1.951v2.094Z" transform="translate(135.256 -494.475)"/></g><g transform="translate(-135.757 431.722)"><path class="a" d="M-123.553,431.743v2.094H-125.5v-2.094Zm-4.876,0v2.094h-1.951v-2.094Zm0,4.675v2.094h-1.951v-2.094Zm-4.876-4.675v2.094h-1.951v-2.094Z" transform="translate(135.256 -431.743)"/></g><g transform="translate(-163.379 459.915)"><path class="a" d="M-163.307,460.374h2.094v1.951h-2.094Zm0,4.876h2.094V467.2h-2.094Zm4.675,0h2.093V467.2h-2.093Zm-4.675,4.876h2.094v1.951h-2.094Z" transform="translate(163.307 -460.374)"/></g></g></svg>