<svg xmlns="http://www.w3.org/2000/svg" width="74.226" height="82.588" viewBox="0 0 74.226 82.588"><defs><style>.a{fill:#fff;}</style></defs><g transform="translate(949.39 -260.623)"><path class="a" d="M-913.311,267.064l-.985-2.284c-.79.341-1.58.711-2.349,1.1l1.125,2.219C-914.8,267.733-914.054,267.385-913.311,267.064Z" transform="translate(-6.69 -0.849)"/><path class="a" d="M-944.833,321.293c.135.846.3,1.7.489,2.545l2.428-.545c-.178-.793-.333-1.6-.461-2.394Z" transform="translate(-0.931 -12.316)"/><path class="a" d="M-897.363,263.1l-.193-2.481c-.863.068-1.73.162-2.576.28l.344,2.463C-898.991,263.255-898.175,263.167-897.363,263.1Z" transform="translate(-10.065)"/><path class="a" d="M-880.42,262.023c-.833-.217-1.684-.411-2.529-.576l-.476,2.442c.795.156,1.6.338,2.38.542Z" transform="translate(-13.478 -0.168)"/><path class="a" d="M-864.713,268.857c-.718-.474-1.462-.934-2.211-1.365l-1.24,2.157c.7.405,1.4.837,2.078,1.283Z" transform="translate(-16.596 -1.403)"/><path class="a" d="M-927.059,275.993l-1.671-1.843c-.639.58-1.268,1.186-1.868,1.8l1.783,1.735C-928.251,277.108-927.66,276.538-927.059,275.993Z" transform="translate(-3.84 -2.764)"/><path class="a" d="M-939.32,337.5c.407.764.84,1.521,1.288,2.251l2.12-1.3c-.422-.687-.829-1.4-1.213-2.12Z" transform="translate(-2.058 -15.469)"/><path class="a" d="M-914.367,360.541c.784.35,1.591.681,2.4.983l.872-2.33c-.761-.286-1.521-.6-2.257-.925Z" transform="translate(-7.156 -19.951)"/><path class="a" d="M-928.8,351.082c.63.589,1.285,1.165,1.95,1.713l1.583-1.918c-.625-.516-1.241-1.058-1.833-1.611Z" transform="translate(-4.208 -18.111)"/><path class="a" d="M-877.714,310.918c6.558-2.771,10.77-9.205,12.185-18.679a52.746,52.746,0,0,0,.145-13.828,1.2,1.2,0,0,0-1.351-1.011,1.2,1.2,0,0,0-1.012,1.351,51.253,51.253,0,0,1,.236,9.317h-26.84a56.146,56.146,0,0,1,.3-7.77h14.885a1.193,1.193,0,0,0,1.193-1.194,1.193,1.193,0,0,0-1.193-1.193h-14.512a32.292,32.292,0,0,1,3.834-8.6,1.192,1.192,0,0,0-.321-1.657,1.192,1.192,0,0,0-1.657.321c-1.613,2.385-4.067,7.524-4.484,10.993-2.541,21.12,5.489,29.1,12.958,32.039-15.38,9.462-13.223,32.278-13.2,32.527a1.193,1.193,0,0,0,1.186,1.069,1.084,1.084,0,0,0,.124-.006,1.194,1.194,0,0,0,1.065-1.31,44.332,44.332,0,0,1,.176-8.225,1.193,1.193,0,0,0,.289.04h26.927a24.073,24.073,0,0,1-.095,2.8,1.193,1.193,0,0,0,1.055,1.317,1.233,1.233,0,0,0,.132.007,1.193,1.193,0,0,0,1.185-1.061C-864.477,337.967-862.616,319.359-877.714,310.918Zm9.989-20.462a34.664,34.664,0,0,1-1.809,7.943h-22.925a30.169,30.169,0,0,1-1.739-7.943ZM-881.919,309a16.8,16.8,0,0,1-9.462-8.213h20.825a15.85,15.85,0,0,1-8.606,8.156c-.483.184-.942.387-1.4.594C-881.006,309.351-881.451,309.166-881.919,309Zm1.4,3.164a22.213,22.213,0,0,1,10.73,10.226h-20.666A22.457,22.457,0,0,1-880.517,312.162Zm-13.156,20.556a37.856,37.856,0,0,1,2.145-7.943h22.515a1.2,1.2,0,0,0,.274-.034,29.791,29.791,0,0,1,1.832,7.977Z" transform="translate(-10.749 -1.395)"/><path class="a" d="M-904.978,311.821a1.025,1.025,0,0,0,.038-.128,1.119,1.119,0,0,0,.017-.118c0-.037.01-.074.01-.112a1.186,1.186,0,0,0-.01-.141c0-.025,0-.049,0-.075,0-.006,0-.012,0-.019a1.29,1.29,0,0,0-.037-.135A.936.936,0,0,0-905,311c-.014-.036-.034-.069-.052-.1a1.145,1.145,0,0,0-.054-.1c-.02-.03-.045-.057-.068-.086s-.048-.064-.075-.093-.054-.047-.081-.07a1.152,1.152,0,0,0-.1-.08c-.025-.018-.054-.031-.081-.047a1.1,1.1,0,0,0-.127-.068l-.017-.01c-.022-.01-.046-.013-.069-.021a1.359,1.359,0,0,0-.138-.041c-.036-.007-.072-.01-.107-.014a1.063,1.063,0,0,0-.123-.011,1.085,1.085,0,0,0-.125.008c-.03,0-.058,0-.088.006-.388.064-9.539,1.612-13.508,4.988a9.1,9.1,0,0,0-2.212,2.775V291.115a7.879,7.879,0,0,0,5.519-4.458c1.7-3.732,1.655-10.68,1.653-10.974,0-.025-.005-.048-.008-.072a.976.976,0,0,0-.013-.119,1.139,1.139,0,0,0-.028-.118c-.01-.037-.021-.072-.035-.109s-.029-.068-.046-.1-.021-.052-.036-.076-.022-.029-.033-.045-.023-.032-.035-.048a1.187,1.187,0,0,0-.932-.491c-.013,0-.026,0-.038,0s-.052.006-.08.008-.073.006-.11.013-.083.018-.124.029-.068.02-.1.033a1.226,1.226,0,0,0-.118.054c-.021.01-.042.017-.062.029-.246.145-6.044,3.588-7.786,7.423a9.925,9.925,0,0,0,.1,7.6,1.172,1.172,0,0,0-.074.4v11.645a18.053,18.053,0,0,0-5.706-9.508c-5.964-4.846-17.46-6.279-17.947-6.338-.013,0-.025,0-.037,0-.037,0-.074,0-.111,0s-.086,0-.127,0-.065.011-.1.017a1.278,1.278,0,0,0-.134.033l-.031.007c-.024.009-.044.021-.067.032a1,1,0,0,0-.115.053c-.035.02-.068.041-.1.064s-.06.042-.088.066a1.12,1.12,0,0,0-.089.084c-.025.026-.049.052-.073.08s-.047.064-.069.1-.04.062-.057.095a1.2,1.2,0,0,0-.05.112c-.013.033-.026.065-.036.1a1.1,1.1,0,0,0-.03.134c0,.022-.012.043-.014.066s0,.019,0,.029a1.136,1.136,0,0,0,0,.137c0,.035,0,.07,0,.1s.013.074.021.111a1.27,1.27,0,0,0,.03.124c0,.01,0,.021.007.031.214.609,5.3,14.948,11.26,19.79a10.976,10.976,0,0,0,7.062,2.5,13.071,13.071,0,0,0,6.6-1.81v27.73a1.193,1.193,0,0,0,1.193,1.193,1.193,1.193,0,0,0,1.194-1.193v-10.2a1.11,1.11,0,0,0,.175.052,11.055,11.055,0,0,0,1.924.149A11.919,11.919,0,0,0-912.168,323c3.937-3.349,7.038-10.783,7.168-11.1C-904.99,311.873-904.986,311.847-904.978,311.821Zm-17.281-28.746c.839-1.845,3.149-3.811,4.962-5.119-.115,2.249-.443,5.658-1.377,7.713a5.473,5.473,0,0,1-3.486,3.021A7.482,7.482,0,0,1-922.258,283.075Zm-14.3,22.329c-4.236-3.442-8.223-12.8-9.8-16.838,3.481.617,10.708,2.229,14.747,5.511,4.563,3.709,5.414,10.321,5.561,12.062C-927.444,306.864-932.237,308.919-936.562,305.4Zm22.848,15.774a9.9,9.9,0,0,1-7,2.08,7.367,7.367,0,0,1,2.455-6.186c2.369-2.014,7.224-3.347,10.092-3.994C-909.326,315.441-911.4,319.212-913.714,321.179Z" transform="translate(0 -2.835)"/></g></svg>