<svg xmlns="http://www.w3.org/2000/svg" width="80.295" height="82.588" viewBox="0 0 80.295 82.588"><defs><style>.a{fill:#fff;}</style></defs><path class="a" d="M82.168,19.2c-.006-.035,0-.072-.014-.106a1.131,1.131,0,0,0-.111-.27.882.882,0,0,0-.06-.08,1.124,1.124,0,0,0-.118-.154c-.026-.027-.06-.046-.089-.07a1.113,1.113,0,0,0-.138-.109l-.008,0-.007-.005-9.452-5.416a1.132,1.132,0,0,0-1.125,0L61.589,18.4l-.007.005-.008,0a1.115,1.115,0,0,0-.139.109.811.811,0,0,0-.089.07,1.122,1.122,0,0,0-.119.156c-.019.027-.043.05-.059.078a1.133,1.133,0,0,0-.111.27c-.009.033-.008.069-.014.1a1.111,1.111,0,0,0-.025.188v2.3l-8.411-5.268a1.108,1.108,0,0,0,.023-.172V6.794a1.111,1.111,0,0,0-.025-.185c-.006-.035,0-.072-.014-.106a1.131,1.131,0,0,0-.111-.269,1.143,1.143,0,0,0-.073-.1,1.12,1.12,0,0,0-.1-.136,1.155,1.155,0,0,0-.107-.084,1.111,1.111,0,0,0-.122-.1H52.07l0-.01L42.608.4a1.132,1.132,0,0,0-1.125,0L32.025,5.812l-.008.006h-.006a1.111,1.111,0,0,0-.122.1A1.152,1.152,0,0,0,31.782,6a1.122,1.122,0,0,0-.105.138,1.148,1.148,0,0,0-.072.1,1.131,1.131,0,0,0-.111.27c-.009.033-.008.069-.014.1a1.112,1.112,0,0,0-.025.188v9.459a1.107,1.107,0,0,0,.023.173L23.07,21.689v-2.3a1.111,1.111,0,0,0-.025-.185c-.006-.035,0-.072-.014-.106a1.131,1.131,0,0,0-.111-.27.884.884,0,0,0-.06-.08,1.123,1.123,0,0,0-.118-.154c-.027-.027-.06-.046-.089-.07a1.113,1.113,0,0,0-.138-.109l-.008,0L22.5,18.4l-9.453-5.416a1.132,1.132,0,0,0-1.125,0L2.467,18.4l-.007.005-.008,0a1.115,1.115,0,0,0-.139.109.811.811,0,0,0-.089.07,1.122,1.122,0,0,0-.119.156c-.019.027-.043.05-.059.078a1.133,1.133,0,0,0-.111.27c-.009.033-.008.069-.014.1a1.111,1.111,0,0,0-.025.188V28.84a1.131,1.131,0,0,0,.589.993l8.866,4.841V47.628L2.467,52.717l-.007.005-.008,0a1.115,1.115,0,0,0-.139.109.811.811,0,0,0-.089.07,1.122,1.122,0,0,0-.119.156c-.019.027-.043.05-.059.078a1.133,1.133,0,0,0-.111.27c-.009.033-.008.069-.014.1A1.111,1.111,0,0,0,1.9,53.7v9.455a1.131,1.131,0,0,0,.59.993l9.455,5.161a1.115,1.115,0,0,0,.165.065.958.958,0,0,0,.09.035,1.094,1.094,0,0,0,.575,0c.031-.008.059-.025.09-.035a1.115,1.115,0,0,0,.165-.065l8.028-4.382,10.408,6.93v4.689a1.131,1.131,0,0,0,.589.993L41.506,82.7a1.114,1.114,0,0,0,.165.065.955.955,0,0,0,.09.035,1.094,1.094,0,0,0,.575,0c.031-.008.059-.025.09-.035a1.113,1.113,0,0,0,.165-.065l9.452-5.162a1.131,1.131,0,0,0,.589-.993V71.854l10.408-6.93,8.028,4.382a1.114,1.114,0,0,0,.165.065.953.953,0,0,0,.09.035,1.094,1.094,0,0,0,.575,0c.031-.008.059-.025.09-.035a1.115,1.115,0,0,0,.165-.065l9.452-5.16a1.131,1.131,0,0,0,.589-.993V53.7a1.111,1.111,0,0,0-.025-.185c-.006-.035,0-.072-.014-.106a1.131,1.131,0,0,0-.111-.27.886.886,0,0,0-.06-.08,1.123,1.123,0,0,0-.118-.154c-.026-.027-.06-.046-.089-.07a1.113,1.113,0,0,0-.138-.109l-.008,0-.007-.005-8.886-5.089V34.674l8.866-4.84a1.131,1.131,0,0,0,.589-.993V19.385a1.111,1.111,0,0,0-.023-.185ZM48.893,67.224l-6.848,3.738L35.2,67.224l-.29-.158,7.137-4.087,7.137,4.084ZM20.807,28.169l-7.192,3.925V25.217l7.192-3.925ZM12.484,49.588l7.137,4.087-.29.158-6.848,3.738L5.636,53.833l-.29-.158Zm9.36,2.753-8.228-4.713V34.674l7.5-4.092,10.349,6.734v8.254ZM33.722,15.578V8.7l7.192,3.928V19.5Zm16.647,0L43.177,19.5V12.629L50.369,8.7ZM42.045,32.591l7.137,4.087-.29.158-6.848,3.738L35.2,36.837l-.29-.158Zm-8.323,6.018,7.192,3.926v6.879l-7.192-3.927Zm9.455,3.926,7.192-3.926v6.877l-7.192,3.927Zm9.455-5.219L62.98,30.581l7.5,4.094V47.628l-8.228,4.713-9.616-6.771Zm17.843-12.1v6.877l-7.191-3.925V21.292ZM63.283,62.483V55.606l7.192,3.926v6.877Zm15.171-8.65-6.848,3.738-6.848-3.738-.29-.158,7.137-4.087,7.137,4.087Zm-6.848-38.56,7.137,4.087-.29.158-6.848,3.738-6.848-3.738-.29-.158ZM61.06,29.13l-9.6,6.247-8.286-4.745v-8.55l7.59-4.144L61.02,24.359v4.48a1.128,1.128,0,0,0,.04.291ZM42.045,2.683l7.136,4.088L42.358,10.5l-.313.171-.313-.171L34.909,6.77ZM33.324,17.94l7.59,4.144v8.548l-8.286,4.745-9.6-6.247a1.129,1.129,0,0,0,.039-.291v-4.48ZM12.484,15.273l7.137,4.087-.29.158-6.848,3.738L5.636,19.519l-.29-.158ZM4.162,21.292l7.192,3.926v6.876L4.162,28.169Zm0,34.314,7.192,3.926v6.877L4.162,62.483Zm9.455,3.926,7.192-3.926v6.877l-7.192,3.925Zm9.391,3.975a1.12,1.12,0,0,0,.065-.354V54.245l9.594-6.757,8.248,4.5v9.029l-8.889,5.089-.007.005-.008,0a1.114,1.114,0,0,0-.139.109.812.812,0,0,0-.089.07,1.122,1.122,0,0,0-.119.156c-.019.027-.043.05-.059.078a1.133,1.133,0,0,0-.111.27c-.009.033-.008.069-.014.1a1.112,1.112,0,0,0-.025.188v2.047Zm10.715,7.736V69l7.192,3.926V79.8l-7.192-3.925ZM43.177,79.8V72.922L50.369,69v6.877Zm9.455-12.709a1.112,1.112,0,0,0-.025-.185c-.006-.035,0-.072-.014-.106a1.131,1.131,0,0,0-.111-.27.884.884,0,0,0-.06-.08A1.122,1.122,0,0,0,52.3,66.3c-.027-.027-.06-.046-.089-.07a1.112,1.112,0,0,0-.138-.109l-.008,0-.007-.005-8.885-5.089V51.99l8.248-4.5,9.6,6.757v8.909a1.12,1.12,0,0,0,.065.354l-8.452,5.629Zm20.105-.681V59.532l7.192-3.926v6.877Zm0-34.314V25.217l7.192-3.925v6.877Z" transform="translate(-1.897 -0.248)"/></svg>