<svg xmlns="http://www.w3.org/2000/svg" xmlns:xlink="http://www.w3.org/1999/xlink" width="1600" height="324" viewBox="0 0 1600 324"><defs><style>.a{fill:#fff;stroke:#707070;}.b{opacity:0.56;}.c{clip-path:url(#a);}.d{opacity:0.45;clip-path:url(#b);}.d,.e,.f{isolation:isolate;}.f{mix-blend-mode:overlay;}.g{fill:#cbcbcb;}</style><clipPath id="a"><rect class="a" width="1600" height="324" transform="translate(67 9)"/></clipPath><clipPath id="b"><rect class="a" width="1919" height="350" transform="translate(7892 -796)"/></clipPath></defs><g class="b"><g class="c" transform="translate(-67 -9)"><g class="d" transform="translate(-7892 796)"><g class="e" transform="translate(10712.658 -360.921)"><g transform="translate(-2774.244 -957.751)"><g class="f" transform="translate(789.634 361.283)"><g transform="translate(8.892)"><rect class="g" width="4.086" height="436.15"/></g><g transform="translate(0 425.215)"><circle class="g" cx="10.935" cy="10.935" r="10.935"/></g></g><g class="f" transform="translate(28.585 338.699)"><g transform="translate(8.892)"><rect class="g" width="4.086" height="436.15"/></g><g transform="translate(0 425.215)"><circle class="g" cx="10.935" cy="10.935" r="10.935"/></g></g><g class="f" transform="translate(137.054 118.299)"><g transform="translate(8.62)"><rect class="g" width="4.086" height="192.913"/></g><g transform="translate(0 182.249)"><path class="g" d="M-2616.048-726.429a10.663,10.663,0,0,1-10.662,10.662,10.663,10.663,0,0,1-10.664-10.662,10.663,10.663,0,0,1,10.664-10.664A10.663,10.663,0,0,1-2616.048-726.429Z" transform="translate(2637.374 737.093)"/></g></g><g class="f" transform="translate(107.541 357.416)"><g transform="translate(5.434)"><path class="g" d="M-2650.966-330.093h-4.086V-518.155l32.7-28.057v-149.13h4.086v151.008l-32.7,28.057Z" transform="translate(2655.052 695.342)"/></g><g transform="translate(0 356.901)"><path class="g" d="M-2642.347-424.962a8.347,8.347,0,0,1-8.348,8.347,8.346,8.346,0,0,1-8.346-8.347,8.348,8.348,0,0,1,8.346-8.348A8.348,8.348,0,0,1-2642.347-424.962Z" transform="translate(2659.042 433.31)"/></g></g><g class="f" transform="translate(66.089 353.88)"><g transform="translate(5.435)"><path class="g" d="M-2681.4-332.688h-4.086V-520.75l32.7-28.057v-149.13h4.086v151.008l-32.7,28.057Z" transform="translate(2685.485 697.938)"/></g><g transform="translate(0 356.902)"><path class="g" d="M-2672.78-427.558a8.348,8.348,0,0,1-8.348,8.348,8.348,8.348,0,0,1-8.347-8.348,8.348,8.348,0,0,1,8.347-8.347A8.348,8.348,0,0,1-2672.78-427.558Z" transform="translate(2689.475 435.905)"/></g></g><g class="f" transform="translate(180.336 204.234)"><path class="g" d="M-2543.47-260.383l-67.845-68.3,0-.846,1.6-478.275,4.086.013-1.6,477.429,66.653,67.1Z" transform="translate(2611.315 807.806)"/><g transform="translate(61.343 538.029)"><path class="g" d="M-2553.146-410.524a7.683,7.683,0,0,1-.037,10.862,7.683,7.683,0,0,1-10.864-.035,7.683,7.683,0,0,1,.037-10.864A7.682,7.682,0,0,1-2553.146-410.524Z" transform="translate(2566.278 412.792)"/></g></g><g class="f" transform="translate(235.937 120.034)"><path class="g" d="M-2505.269-285.42-2507.11-419.2l-60.09-58.459-.012-.847-5.381-391.06,4.086-.056,5.369,390.214,60.09,58.459,1.865,135.476Z" transform="translate(2572.593 869.624)"/><g transform="translate(61.679 576.111)"><path class="g" d="M-2511.945-439.075a7.681,7.681,0,0,1-7.576,7.786,7.682,7.682,0,0,1-7.787-7.574,7.684,7.684,0,0,1,7.576-7.787A7.683,7.683,0,0,1-2511.945-439.075Z" transform="translate(2527.309 446.652)"/></g></g><g class="f" transform="translate(214.065 537.51)"><g transform="translate(5.986 5.945)"><path class="g" d="M-2535.928-393.913l-2.319-118.47-45-43.432,2.837-2.94,46.21,44.6.016.844,2.335,119.314Z" transform="translate(2583.242 558.754)"/></g><path class="g" d="M-2585.29-549.911a7.681,7.681,0,0,1-.192-10.861,7.681,7.681,0,0,1,10.861-.192,7.681,7.681,0,0,1,.192,10.861A7.681,7.681,0,0,1-2585.29-549.911Z" transform="translate(2587.637 563.119)"/></g><g transform="translate(231.515 608.583)"><g transform="translate(2.958)"><rect class="g" width="4.086" height="62.366" transform="matrix(1, -0.018, 0.018, 1, 0, 0.075)"/></g><g transform="translate(0 55.941)"><path class="g" d="M-2562.74-463.836a6.146,6.146,0,0,1-6.031,6.257,6.145,6.145,0,0,1-6.257-6.031,6.147,6.147,0,0,1,6.031-6.257A6.146,6.146,0,0,1-2562.74-463.836Z" transform="translate(2575.03 469.868)"/></g></g><g class="f" transform="translate(658.128 129.025)"><path class="g" d="M-2213.139-276.676l-.29-146.743-67.254-66.988,0-.847-.736-371.762,4.086-.008.734,370.915,67.254,66.988.294,148.436Z" transform="translate(2281.421 863.023)"/><g transform="translate(62.643 578.278)"><path class="g" d="M-2220.066-430.794a7.683,7.683,0,0,1-7.667,7.7,7.681,7.681,0,0,1-7.7-7.667,7.68,7.68,0,0,1,7.666-7.7A7.682,7.682,0,0,1-2220.066-430.794Z" transform="translate(2235.429 438.46)"/></g></g><g class="f" transform="translate(692.276 129.025)"><path class="g" d="M-2188.067-276.676l-.291-146.743-67.254-66.988v-.847l-.736-371.762,4.086-.008.734,370.915,67.254,66.988.295,148.436Z" transform="translate(2256.35 863.023)"/><g transform="translate(62.643 578.278)"><path class="g" d="M-2195-430.794a7.682,7.682,0,0,1-7.666,7.7,7.682,7.682,0,0,1-7.7-7.667,7.681,7.681,0,0,1,7.666-7.7A7.68,7.68,0,0,1-2195-430.794Z" transform="translate(2210.358 438.46)"/></g></g><g class="f" transform="translate(268.491 118.292)"><path class="g" d="M-2480.885-284.641l-.484-146.742-67.343-66.9-1.23-372.607,4.086-.013,1.224,370.913,67.343,66.9.49,148.435Z" transform="translate(2549.942 870.903)"/><g transform="translate(63.417 578.188)"><path class="g" d="M-2488.02-438.749a7.683,7.683,0,0,1-7.656,7.708,7.682,7.682,0,0,1-7.706-7.657,7.681,7.681,0,0,1,7.656-7.706A7.682,7.682,0,0,1-2488.02-438.749Z" transform="translate(2503.382 446.405)"/></g></g><g class="f" transform="translate(313.057 35.934)"><g transform="translate(5.497)"><rect class="g" width="4.086" height="436.74"/></g><g transform="translate(0 428.674)"><path class="g" d="M-2502.656-608.966a7.683,7.683,0,0,1-7.677,7.687,7.682,7.682,0,0,1-7.686-7.677,7.682,7.682,0,0,1,7.677-7.687A7.682,7.682,0,0,1-2502.656-608.966Z" transform="translate(2518.018 616.643)"/></g></g><g class="f" transform="translate(368.445)"><g transform="translate(5.614)"><path class="g" d="M-2476.229-253.541l-.024-98.415,71.3-71.338-.135-534.457H-2401l.135,536.15-71.3,71.338.025,96.722Z" transform="translate(2476.253 957.751)"/></g><g transform="translate(0 696.145)"><path class="g" d="M-2465.012-438.973a7.681,7.681,0,0,1-7.679,7.683,7.683,7.683,0,0,1-7.684-7.679,7.682,7.682,0,0,1,7.679-7.683A7.682,7.682,0,0,1-2465.012-438.973Z" transform="translate(2480.375 446.652)"/></g></g><g class="e" transform="translate(373.173 68.446)"><g class="f"><g transform="translate(5.969)"><path class="g" d="M-2469.13-425.846l-2.88-2.9,30.26-30.064,1.465-448.691,4.086.013-1.47,450.385Z" transform="translate(2472.01 907.5)"/></g><g transform="translate(0 472.252)"><path class="g" d="M-2463.3-547.648a7.681,7.681,0,0,1-10.862-.035,7.682,7.682,0,0,1,.035-10.864,7.682,7.682,0,0,1,10.863.035A7.682,7.682,0,0,1-2463.3-547.648Z" transform="translate(2476.392 560.779)"/></g></g><g class="f"><g transform="translate(5.969)"><path class="g" d="M-2469.13-425.846l-2.88-2.9,30.26-30.064,1.465-448.691,4.086.013-1.47,450.385Z" transform="translate(2472.01 907.5)"/></g><g transform="translate(0 472.252)"><path class="g" d="M-2463.3-547.648a7.681,7.681,0,0,1-10.862-.035,7.682,7.682,0,0,1,.035-10.864,7.682,7.682,0,0,1,10.863.035A7.682,7.682,0,0,1-2463.3-547.648Z" transform="translate(2476.392 560.779)"/></g></g><g class="e"><g transform="translate(5.969)"><path class="g" d="M-2469.13-425.846l-2.88-2.9,30.26-30.064,1.465-448.691,4.086.013-1.47,450.385Z" transform="translate(2472.01 907.5)"/></g><g transform="translate(0 472.252)"><path class="g" d="M-2463.3-547.648a7.681,7.681,0,0,1-10.862-.035,7.682,7.682,0,0,1,.035-10.864,7.682,7.682,0,0,1,10.863.035A7.682,7.682,0,0,1-2463.3-547.648Z" transform="translate(2476.392 560.779)"/></g></g></g><g class="e" transform="translate(340.277 29.42)"><g class="f"><g transform="translate(5.969)"><path class="g" d="M-2492.1-454.5l-2.88-2.9,30.26-30.064,1.465-448.691,4.086.013-1.47,450.385Z" transform="translate(2494.98 936.152)"/></g><g transform="translate(0 472.253)"><path class="g" d="M-2486.267-576.3a7.684,7.684,0,0,1-10.864-.035,7.683,7.683,0,0,1,.036-10.864,7.683,7.683,0,0,1,10.864.035A7.683,7.683,0,0,1-2486.267-576.3Z" transform="translate(2499.363 589.431)"/></g></g><g class="f"><g transform="translate(5.969)"><path class="g" d="M-2492.1-454.5l-2.88-2.9,30.26-30.064,1.465-448.691,4.086.013-1.47,450.385Z" transform="translate(2494.98 936.152)"/></g><g transform="translate(0 472.253)"><path class="g" d="M-2486.267-576.3a7.684,7.684,0,0,1-10.864-.035,7.683,7.683,0,0,1,.036-10.864,7.683,7.683,0,0,1,10.864.035A7.683,7.683,0,0,1-2486.267-576.3Z" transform="translate(2499.363 589.431)"/></g></g><g class="e"><g transform="translate(5.969)"><path class="g" d="M-2492.1-454.5l-2.88-2.9,30.26-30.064,1.465-448.691,4.086.013-1.47,450.385Z" transform="translate(2494.98 936.152)"/></g><g transform="translate(0 472.253)"><path class="g" d="M-2486.267-576.3a7.684,7.684,0,0,1-10.864-.035,7.683,7.683,0,0,1,.036-10.864,7.683,7.683,0,0,1,10.864.035A7.683,7.683,0,0,1-2486.267-576.3Z" transform="translate(2499.363 589.431)"/></g></g></g><g class="f" transform="translate(399.209 561.841)"><g transform="translate(5.413)"><path class="g" d="M-2454.449-402.881l-.227-84.938,57.13-57.436,2.9,2.881-55.937,56.237.223,83.246Z" transform="translate(2454.676 545.256)"/></g><g transform="translate(0 134.304)"><path class="g" d="M-2443.286-438.99a7.682,7.682,0,0,1-7.662,7.7,7.682,7.682,0,0,1-7.7-7.66,7.684,7.684,0,0,1,7.662-7.7A7.683,7.683,0,0,1-2443.286-438.99Z" transform="translate(2458.65 446.652)"/></g></g><g class="f" transform="translate(429.392 493.027)"><g transform="translate(5.01)"><path class="g" d="M-2433.293-247.507l-.63-235.588,57.13-57.436,2.9,2.881-55.937,56.237.625,233.9Z" transform="translate(2433.923 540.531)"/></g><g transform="translate(0 284.953)"><path class="g" d="M-2422.237-323.66a7.684,7.684,0,0,1-7.662,7.7,7.684,7.684,0,0,1-7.7-7.662,7.684,7.684,0,0,1,7.661-7.7A7.685,7.685,0,0,1-2422.237-323.66Z" transform="translate(2437.601 331.322)"/></g></g><g class="f" transform="translate(475.332 719.155)"><path class="g" d="M-2404.2-429.758" transform="translate(2404.2 429.758)"/></g><g class="f" transform="translate(457.976 43.827)"><g transform="translate(5.976)"><path class="g" d="M-2410.609-322.5l-2.862-2.916,58.191-57.132,4.987-543.022,4.086.037-5,544.715Z" transform="translate(2413.472 925.574)"/></g><g transform="translate(0 593.662)"><path class="g" d="M-2404.8-476.553a7.682,7.682,0,0,1-10.862-.1,7.681,7.681,0,0,1,.1-10.862,7.683,7.683,0,0,1,10.863.1A7.683,7.683,0,0,1-2404.8-476.553Z" transform="translate(2417.859 489.716)"/></g></g><g class="f" transform="translate(494.331 47.792)"><g transform="translate(5.976)"><path class="g" d="M-2385.281-319.594l-2.862-2.916,58.191-57.132,4.986-543.021,4.086.037-5,544.715Z" transform="translate(2388.143 922.663)"/></g><g transform="translate(0 593.661)"><path class="g" d="M-2379.467-473.642a7.684,7.684,0,0,1-10.864-.1,7.682,7.682,0,0,1,.1-10.862,7.682,7.682,0,0,1,10.862.1A7.684,7.684,0,0,1-2379.467-473.642Z" transform="translate(2392.531 486.805)"/></g></g><g class="f" transform="translate(480.25 105.602)"><g transform="translate(4.414)"><rect class="g" width="4.086" height="427.775" transform="translate(0 0.012) rotate(-0.164)"/></g><g transform="translate(0 419.713)"><path class="g" d="M-2385.7-564.413a7.682,7.682,0,0,1-7.659,7.7,7.682,7.682,0,0,1-7.7-7.659,7.683,7.683,0,0,1,7.659-7.7A7.682,7.682,0,0,1-2385.7-564.413Z" transform="translate(2401.064 572.072)"/></g></g><g class="f" transform="translate(461.759 214.537)"><g transform="translate(5.637)"><path class="g" d="M-2409.067-258.258l-4.086-.012.1-36.836,142.57-141.769,1.023-363.366,4.086.012-1.028,365.058L-2408.969-293.4Z" transform="translate(2413.153 800.242)"/></g><g transform="translate(0 533.912)"><path class="g" d="M-2401.929-400.549a7.682,7.682,0,0,1-7.7,7.66,7.681,7.681,0,0,1-7.659-7.7,7.681,7.681,0,0,1,7.7-7.66A7.683,7.683,0,0,1-2401.929-400.549Z" transform="translate(2417.292 408.251)"/></g></g><g class="f" transform="translate(611.395 539.338)"><g transform="translate(4.708)"><path class="g" d="M-2311.34-385.2l-.935-91.791,62.037-63.313,21.474-21.473,2.889,2.889-21.459,21.458-60.837,62.09.917,90.1Z" transform="translate(2312.275 561.777)"/></g><g transform="translate(0 168.491)"><path class="g" d="M-2300.368-430.47a7.684,7.684,0,0,1-7.6,7.76,7.683,7.683,0,0,1-7.76-7.6,7.683,7.683,0,0,1,7.6-7.76A7.684,7.684,0,0,1-2300.368-430.47Z" transform="translate(2315.731 438.073)"/></g></g><g class="f" transform="translate(653.95 560.811)"><g transform="translate(4.707)"><path class="g" d="M-2280.1-390.907l-.935-91.791L-2219-546.012l2.918,2.86-60.852,62.1.917,90.1Z" transform="translate(2281.032 546.012)"/></g><g transform="translate(0 147.018)"><path class="g" d="M-2269.125-430.47a7.684,7.684,0,0,1-7.6,7.76,7.683,7.683,0,0,1-7.76-7.6,7.683,7.683,0,0,1,7.6-7.76A7.683,7.683,0,0,1-2269.125-430.47Z" transform="translate(2284.488 438.073)"/></g></g><g class="f" transform="translate(540.067 643.185)"><g transform="translate(5.538)"><rect class="g" width="4.086" height="99.963" transform="translate(0 0.004) rotate(-0.058)"/></g><g transform="translate(0 91.9)"><path class="g" d="M-2343.857-410.388a7.683,7.683,0,0,1-7.674,7.689,7.682,7.682,0,0,1-7.69-7.674,7.682,7.682,0,0,1,7.674-7.689A7.685,7.685,0,0,1-2343.857-410.388Z" transform="translate(2359.221 418.062)"/></g></g><g class="f" transform="translate(65.816 381.913)"><g transform="translate(5.632)"><rect class="g" width="99.963" height="4.086" transform="matrix(0.002, -1, 1, 0.002, 0, 99.963)"/></g><g transform="translate(0 91.901)"><path class="g" d="M-2674.313-602.191a7.681,7.681,0,0,1-7.693,7.67,7.68,7.68,0,0,1-7.669-7.693,7.681,7.681,0,0,1,7.692-7.67A7.682,7.682,0,0,1-2674.313-602.191Z" transform="translate(2689.676 609.884)"/></g></g></g><g transform="translate(-1994.916 -937.653)"><g class="f" transform="translate(827.388 361.283)"><g transform="translate(8.892)"><rect class="g" width="4.086" height="436.15"/></g><g transform="translate(0 425.215)"><circle class="g" cx="10.935" cy="10.935" r="10.935"/></g></g><g class="f" transform="translate(137.054 118.298)"><g transform="translate(8.62)"><rect class="g" width="4.086" height="192.913"/></g><g transform="translate(0 182.25)"><path class="g" d="M-2016.892-694.789a10.663,10.663,0,0,1-10.663,10.663,10.663,10.663,0,0,1-10.664-10.663,10.663,10.663,0,0,1,10.664-10.662A10.663,10.663,0,0,1-2016.892-694.789Z" transform="translate(2038.219 705.451)"/></g></g><g class="f" transform="translate(107.541 357.415)"><g transform="translate(5.435)"><path class="g" d="M-2051.811-298.451h-4.086V-486.513l32.7-28.057V-663.7h4.086v151.008l-32.7,28.057Z" transform="translate(2055.897 663.7)"/></g><g transform="translate(0 356.902)"><path class="g" d="M-2043.192-393.32a8.346,8.346,0,0,1-8.347,8.347,8.348,8.348,0,0,1-8.348-8.347,8.348,8.348,0,0,1,8.348-8.348A8.347,8.347,0,0,1-2043.192-393.32Z" transform="translate(2059.887 401.668)"/></g></g><g class="f" transform="translate(66.089 353.88)"><g transform="translate(5.435)"><path class="g" d="M-2082.244-301.046h-4.086V-489.108l32.7-28.057V-666.3h4.086v151.009l-32.7,28.057Z" transform="translate(2086.33 666.296)"/></g><g transform="translate(0 356.903)"><path class="g" d="M-2073.625-395.916a8.347,8.347,0,0,1-8.347,8.348,8.348,8.348,0,0,1-8.348-8.348,8.348,8.348,0,0,1,8.348-8.347A8.346,8.346,0,0,1-2073.625-395.916Z" transform="translate(2090.32 404.263)"/></g></g><g class="f" transform="translate(185.03 204.234)"><path class="g" d="M-1944.314-228.741l-67.845-68.3,0-.846,1.6-478.275,4.086.013-1.6,477.429,66.653,67.1Z" transform="translate(2012.16 776.164)"/><g transform="translate(61.343 538.029)"><path class="g" d="M-1953.992-378.883a7.682,7.682,0,0,1-.037,10.864,7.682,7.682,0,0,1-10.864-.037,7.683,7.683,0,0,1,.037-10.862A7.683,7.683,0,0,1-1953.992-378.883Z" transform="translate(1967.123 381.151)"/></g></g><g class="e" transform="translate(145.673 536.502)"><path class="g" d="M-1978.689-241.444l-53.2-53.326v-.847l.275-236.6,4.086.005-.274,235.755,52.007,52.127Z" transform="translate(2031.891 532.217)"/><g transform="translate(46.696 281.378)"><path class="g" d="M-1984.488-323.379a7.684,7.684,0,0,1-.012,10.864,7.683,7.683,0,0,1-10.864-.012,7.683,7.683,0,0,1,.012-10.864A7.685,7.685,0,0,1-1984.488-323.379Z" transform="translate(1997.607 325.634)"/></g></g><g class="f" transform="translate(243.95 120.034)"><path class="g" d="M-1906.114-253.777l-1.841-133.783-60.091-58.459-.012-.847-5.38-391.06,4.086-.056,5.368,390.213,60.091,58.459,1.865,135.476Z" transform="translate(1973.438 837.982)"/><g transform="translate(61.681 576.111)"><path class="g" d="M-1912.791-407.434a7.683,7.683,0,0,1-7.576,7.787,7.681,7.681,0,0,1-7.785-7.574,7.682,7.682,0,0,1,7.574-7.787A7.683,7.683,0,0,1-1912.791-407.434Z" transform="translate(1928.153 415.01)"/></g></g><g class="f" transform="translate(220.571 537.51)"><g transform="translate(5.986 5.945)"><path class="g" d="M-1936.773-362.271l-2.319-118.469-44.995-43.432,2.837-2.94,46.211,44.6.016.844,2.335,119.313Z" transform="translate(1984.087 527.112)"/></g><path class="g" d="M-1986.135-518.269a7.681,7.681,0,0,1-.192-10.861,7.681,7.681,0,0,1,10.861-.192,7.681,7.681,0,0,1,.192,10.861A7.681,7.681,0,0,1-1986.135-518.269Z" transform="translate(1988.482 531.477)"/></g><g transform="translate(238.545 608.583)"><g transform="translate(2.959)"><rect class="g" width="4.086" height="62.366" transform="matrix(1, -0.018, 0.018, 1, 0, 0.075)"/></g><g transform="translate(0 55.941)"><path class="g" d="M-1963.585-432.194a6.146,6.146,0,0,1-6.031,6.257,6.146,6.146,0,0,1-6.257-6.031,6.146,6.146,0,0,1,6.031-6.257A6.146,6.146,0,0,1-1963.585-432.194Z" transform="translate(1975.875 438.226)"/></g></g><g class="f" transform="translate(695.881 129.025)"><path class="g" d="M-1613.983-245.035l-.29-146.742-67.255-66.989v-.847l-.736-371.761,4.086-.008.733,370.915,67.255,66.989.294,148.435Z" transform="translate(1682.266 831.381)"/><g transform="translate(62.643 578.276)"><path class="g" d="M-1620.911-399.152a7.683,7.683,0,0,1-7.666,7.7,7.682,7.682,0,0,1-7.7-7.667,7.683,7.683,0,0,1,7.666-7.7A7.683,7.683,0,0,1-1620.911-399.152Z" transform="translate(1636.274 406.819)"/></g></g><g class="f" transform="translate(730.029 129.025)"><path class="g" d="M-1588.912-245.035l-.292-146.742-67.254-66.989v-.847l-.735-371.761,4.086-.008.734,370.915,67.254,66.988.294,148.435Z" transform="translate(1657.194 831.381)"/><g transform="translate(62.643 578.276)"><path class="g" d="M-1595.84-399.152a7.681,7.681,0,0,1-7.666,7.7,7.683,7.683,0,0,1-7.7-7.667,7.684,7.684,0,0,1,7.667-7.7A7.682,7.682,0,0,1-1595.84-399.152Z" transform="translate(1611.203 406.819)"/></g></g><g class="f" transform="translate(278.473 118.292)"><path class="g" d="M-1881.73-253l-.484-146.742-67.343-66.9-1.23-372.607,4.086-.013,1.224,370.913,67.343,66.9.49,148.435Z" transform="translate(1950.787 839.261)"/><g transform="translate(63.417 578.189)"><path class="g" d="M-1888.865-407.107a7.682,7.682,0,0,1-7.656,7.706,7.681,7.681,0,0,1-7.707-7.656,7.682,7.682,0,0,1,7.656-7.706A7.682,7.682,0,0,1-1888.865-407.107Z" transform="translate(1904.227 414.763)"/></g></g><g class="f" transform="translate(324.55 35.933)"><g transform="translate(5.497)"><rect class="g" width="4.086" height="436.74"/></g><g transform="translate(0 428.674)"><path class="g" d="M-1903.5-577.324a7.683,7.683,0,0,1-7.677,7.686,7.682,7.682,0,0,1-7.686-7.677,7.683,7.683,0,0,1,7.677-7.686A7.683,7.683,0,0,1-1903.5-577.324Z" transform="translate(1918.863 585.001)"/></g></g><g class="f" transform="translate(384.463)"><g transform="translate(5.614)"><path class="g" d="M-1877.073-221.9l-.025-98.415,71.3-71.338-.135-534.456h4.086l.135,536.149-71.3,71.338.025,96.722Z" transform="translate(1877.098 926.109)"/></g><g transform="translate(0 696.144)"><path class="g" d="M-1865.856-407.331a7.684,7.684,0,0,1-7.681,7.683,7.682,7.682,0,0,1-7.683-7.679,7.682,7.682,0,0,1,7.679-7.683A7.683,7.683,0,0,1-1865.856-407.331Z" transform="translate(1881.22 415.01)"/></g></g><g transform="translate(388.518 68.446)"><g class="f"><g transform="translate(5.969)"><path class="g" d="M-1869.975-394.2l-2.88-2.9,30.26-30.064,1.465-448.691,4.086.013-1.47,450.384Z" transform="translate(1872.854 875.857)"/></g><g transform="translate(0 472.252)"><path class="g" d="M-1864.141-516.006a7.684,7.684,0,0,1-10.864-.035,7.683,7.683,0,0,1,.035-10.864,7.683,7.683,0,0,1,10.864.035A7.685,7.685,0,0,1-1864.141-516.006Z" transform="translate(1877.237 529.137)"/></g></g><g class="f"><g transform="translate(5.969)"><path class="g" d="M-1869.975-394.2l-2.88-2.9,30.26-30.064,1.465-448.691,4.086.013-1.47,450.384Z" transform="translate(1872.854 875.857)"/></g><g transform="translate(0 472.252)"><path class="g" d="M-1864.141-516.006a7.684,7.684,0,0,1-10.864-.035,7.683,7.683,0,0,1,.035-10.864,7.683,7.683,0,0,1,10.864.035A7.685,7.685,0,0,1-1864.141-516.006Z" transform="translate(1877.237 529.137)"/></g></g><g class="e"><g transform="translate(5.969)"><path class="g" d="M-1869.975-394.2l-2.88-2.9,30.26-30.064,1.465-448.691,4.086.013-1.47,450.384Z" transform="translate(1872.854 875.857)"/></g><g transform="translate(0 472.252)"><path class="g" d="M-1864.141-516.006a7.684,7.684,0,0,1-10.864-.035,7.683,7.683,0,0,1,.035-10.864,7.683,7.683,0,0,1,10.864.035A7.685,7.685,0,0,1-1864.141-516.006Z" transform="translate(1877.237 529.137)"/></g></g></g><g transform="translate(353.763 29.42)"><g class="f"><g transform="translate(5.969)"><path class="g" d="M-1892.945-422.856l-2.88-2.9,30.26-30.064,1.466-448.691,4.086.013-1.471,450.384Z" transform="translate(1895.825 904.51)"/></g><g transform="translate(0 472.252)"><path class="g" d="M-1887.112-544.659a7.682,7.682,0,0,1-10.864-.035,7.681,7.681,0,0,1,.035-10.862,7.682,7.682,0,0,1,10.864.035A7.682,7.682,0,0,1-1887.112-544.659Z" transform="translate(1900.208 557.789)"/></g></g><g class="f"><g transform="translate(5.969)"><path class="g" d="M-1892.945-422.856l-2.88-2.9,30.26-30.064,1.466-448.691,4.086.013-1.471,450.384Z" transform="translate(1895.825 904.51)"/></g><g transform="translate(0 472.252)"><path class="g" d="M-1887.112-544.659a7.682,7.682,0,0,1-10.864-.035,7.681,7.681,0,0,1,.035-10.862,7.682,7.682,0,0,1,10.864.035A7.682,7.682,0,0,1-1887.112-544.659Z" transform="translate(1900.208 557.789)"/></g></g><g class="e"><g transform="translate(5.969)"><path class="g" d="M-1892.945-422.856l-2.88-2.9,30.26-30.064,1.466-448.691,4.086.013-1.471,450.384Z" transform="translate(1895.825 904.51)"/></g><g transform="translate(0 472.252)"><path class="g" d="M-1887.112-544.659a7.682,7.682,0,0,1-10.864-.035,7.681,7.681,0,0,1,.035-10.862,7.682,7.682,0,0,1,10.864.035A7.682,7.682,0,0,1-1887.112-544.659Z" transform="translate(1900.208 557.789)"/></g></g></g><g class="f" transform="translate(416.644 561.84)"><g transform="translate(5.412)"><path class="g" d="M-1855.294-371.239l-.227-84.939,57.13-57.436,2.9,2.881L-1851.43-454.5l.223,83.247Z" transform="translate(1855.521 513.614)"/></g><g transform="translate(0 134.304)"><path class="g" d="M-1844.131-407.35a7.682,7.682,0,0,1-7.661,7.7,7.681,7.681,0,0,1-7.7-7.66,7.681,7.681,0,0,1,7.66-7.7A7.682,7.682,0,0,1-1844.131-407.35Z" transform="translate(1859.494 415.01)"/></g></g><g class="f" transform="translate(495.207 719.155)"><path class="g" d="M-1805.045-398.116" transform="translate(1805.045 398.116)"/></g><g class="f" transform="translate(479.108 43.827)"><g transform="translate(5.976)"><path class="g" d="M-1811.454-290.863l-2.863-2.916,58.191-57.132,4.987-543.022,4.086.037-5,544.715Z" transform="translate(1814.317 893.932)"/></g><g transform="translate(0 593.661)"><path class="g" d="M-1805.641-444.912a7.683,7.683,0,0,1-10.864-.1,7.682,7.682,0,0,1,.1-10.862,7.682,7.682,0,0,1,10.862.1A7.681,7.681,0,0,1-1805.641-444.912Z" transform="translate(1818.704 458.074)"/></g></g><g class="f" transform="translate(517.62 47.792)"><g transform="translate(5.976)"><path class="g" d="M-1786.125-287.951l-2.863-2.916L-1730.8-348l4.987-543.022,4.086.037-5,544.715Z" transform="translate(1788.988 891.021)"/></g><g transform="translate(0 593.661)"><path class="g" d="M-1780.313-442a7.682,7.682,0,0,1-10.862-.1,7.682,7.682,0,0,1,.1-10.862,7.682,7.682,0,0,1,10.862.1A7.682,7.682,0,0,1-1780.313-442Z" transform="translate(1793.375 455.163)"/></g></g><g class="f" transform="translate(500.832 105.602)"><g transform="translate(4.415)"><rect class="g" width="4.086" height="427.775" transform="translate(0 0.012) rotate(-0.164)"/></g><g transform="translate(0 419.714)"><path class="g" d="M-1786.546-532.771a7.682,7.682,0,0,1-7.659,7.7,7.682,7.682,0,0,1-7.7-7.659,7.682,7.682,0,0,1,7.66-7.7A7.68,7.68,0,0,1-1786.546-532.771Z" transform="translate(1801.909 540.43)"/></g></g><g class="f" transform="translate(486.193 214.536)"><g transform="translate(5.637)"><path class="g" d="M-1809.912-226.617l-4.086-.012.1-36.836,142.57-141.769L-1670.3-768.6l4.086.012-1.028,365.058-142.57,141.769Z" transform="translate(1813.998 768.6)"/></g><g transform="translate(0 533.913)"><path class="g" d="M-1802.774-368.907a7.682,7.682,0,0,1-7.7,7.66,7.682,7.682,0,0,1-7.66-7.7,7.681,7.681,0,0,1,7.7-7.659A7.681,7.681,0,0,1-1802.774-368.907Z" transform="translate(1818.137 376.609)"/></g></g><g class="f" transform="translate(636.103 539.338)"><g transform="translate(4.708)"><path class="g" d="M-1712.185-353.557l-.934-91.792,62.037-63.313,21.473-21.473,2.889,2.889-21.458,21.458-60.837,62.09.917,90.1Z" transform="translate(1713.12 530.135)"/></g><g transform="translate(0 168.491)"><path class="g" d="M-1701.213-398.828a7.683,7.683,0,0,1-7.6,7.76,7.683,7.683,0,0,1-7.76-7.6,7.684,7.684,0,0,1,7.6-7.76A7.683,7.683,0,0,1-1701.213-398.828Z" transform="translate(1716.576 406.431)"/></g></g><g class="f" transform="translate(691.703 560.811)"><g transform="translate(4.708)"><path class="g" d="M-1680.942-359.265l-.935-91.792,62.037-63.313,2.918,2.86-60.852,62.1.918,90.1Z" transform="translate(1681.877 514.37)"/></g><g transform="translate(0 147.018)"><path class="g" d="M-1669.97-398.828a7.683,7.683,0,0,1-7.6,7.76,7.683,7.683,0,0,1-7.76-7.6,7.684,7.684,0,0,1,7.6-7.76A7.684,7.684,0,0,1-1669.97-398.828Z" transform="translate(1685.333 406.431)"/></g></g><g class="e" transform="translate(145.674 629.624)"><path class="g" d="M-1966.98-310.3l-64.91-64.91v-88.64h4.086V-376.9l63.713,63.713Z" transform="translate(2031.89 463.849)"/><g transform="translate(58.402 144.153)"><path class="g" d="M-1975.9-355.764a7.683,7.683,0,0,1,0,10.864,7.683,7.683,0,0,1-10.864,0,7.683,7.683,0,0,1,0-10.864A7.683,7.683,0,0,1-1975.9-355.764Z" transform="translate(1989.013 358.013)"/></g></g><g class="f" transform="translate(563.902 643.185)"><g transform="translate(5.537)"><rect class="g" width="4.086" height="99.963" transform="translate(0 0.004) rotate(-0.058)"/></g><g transform="translate(0 91.9)"><path class="g" d="M-1744.7-378.746a7.682,7.682,0,0,1-7.674,7.689,7.682,7.682,0,0,1-7.688-7.674,7.68,7.68,0,0,1,7.672-7.689A7.682,7.682,0,0,1-1744.7-378.746Z" transform="translate(1760.065 386.42)"/></g></g><g class="f" transform="translate(65.815 381.913)"><g transform="translate(5.633)"><rect class="g" width="99.963" height="4.086" transform="matrix(0.002, -1, 1, 0.002, 0, 99.963)"/></g><g transform="translate(0 91.901)"><path class="g" d="M-2075.158-570.549a7.682,7.682,0,0,1-7.693,7.67,7.682,7.682,0,0,1-7.67-7.693,7.682,7.682,0,0,1,7.693-7.67A7.683,7.683,0,0,1-2075.158-570.549Z" transform="translate(2090.521 578.242)"/></g></g></g></g></g></g></g></svg>