<svg xmlns="http://www.w3.org/2000/svg" xmlns:xlink="http://www.w3.org/1999/xlink" width="399" height="640" viewBox="0 0 399 640"><defs><style>.a{fill:#182540;}.b{clip-path:url(#a);}.c{opacity:0.053;isolation:isolate;}.d{fill:#fff;}</style><clipPath id="a"><rect class="a" width="399" height="640" transform="translate(18.499)"/></clipPath></defs><g class="b" transform="translate(-18.499)"><g class="c" transform="translate(-574.649 -777.722)"><path class="d" d="M493.907,172.591a71.9,71.9,0,0,0-13.743,34.9c-.1,2.156-.206,4.343-.444,6.578-3.329,31.972-3.107,83.361-30.529,120.278-27.233,36.6-76.2,51.072-105.7,63.595-3.012,1.284-5.976,2.394-8.925,3.376a72.314,72.314,0,1,0,102.54,70.569c.064-.745.1-1.474.159-2.219,2.457-25.758,3.123-64.023,17.389-97.452A129.681,129.681,0,0,1,674.641,328.9c1.253,1.379,2.378,2.853,3.551,4.28,1.49,1.839,2.949,3.677,4.343,5.6,20.242,27.581,29.468,62.311,37.789,85.374.761,2.092,1.4,4.185,2.03,6.277a69.936,69.936,0,1,0,76.83-93.474c-2.092-.206-4.2-.428-6.356-.777-30.719-4.755-80.4-7.006-114.73-35.269-34.064-28.1-45.7-76.1-56.367-105.22-1.094-2.964-2.029-5.9-2.837-8.781A69.159,69.159,0,0,0,555.9,143.615c-.888-.048-1.776.016-2.663,0a68.936,68.936,0,0,0-7.894.412A71.7,71.7,0,0,0,493.907,172.591Z" transform="translate(-292.794 80.051)"/><path class="d" d="M476.426,273.177a80.523,80.523,0,1,1-80.555-80.524A80.522,80.522,0,0,1,476.426,273.177Z" transform="translate(42.612 808.588)"/><path class="d" d="M393.355,224.666A48.893,48.893,0,1,1,344.47,175.75,48.893,48.893,0,0,1,393.355,224.666Z" transform="translate(-251.573 557.56)"/><path class="d" d="M447.512,194.467a64.792,64.792,0,1,1-64.768-64.752A64.772,64.772,0,0,1,447.512,194.467Z" transform="translate(80.482 -126.11)"/><path class="d" d="M321.729,205.034c5.77,4.724,20.67,9.431,20.67,9.431,29.752,6.594,65.068,22.921,99.164,50.834,34.4,28.167,44.161,68.271,55.495,96.945,1.157,2.948,5.12,12.919,5.991,15.772a73.123,73.123,0,0,0,20.813,27.47c30.1,24.633,73.5,21.336,96.961-7.292,23.444-28.643,18.071-71.837-12.03-96.485a72.661,72.661,0,0,0-36.077-15.788c-.714-.111-1.4-.19-2.109-.3-30.672-5.056-80.254-8.417-115.3-37.107-33.065-27.058-58.49-59.22-69.934-86.785-.508-1.522-6.357-13.933-12.7-18.926-18.339-14.456-44.114-12.839-58.158,4.327C300.425,164.344,303.659,190.245,321.729,205.034Z" transform="translate(-100.454 -77.283)"/><path class="d" d="M367.207,217.761a59.545,59.545,0,0,0,.523,31.068c.618,1.7,1.22,3.408,1.743,5.2,7.593,25.552,24.03,64.8,14.726,101.764-9.241,36.68-42.18,63.246-60.789,82.188-1.9,1.934-3.82,3.725-5.77,5.405a59.915,59.915,0,1,0,100.892,21.558c-.206-.587-.412-1.157-.586-1.744-7.846-25.615-24.379-65.306-14.964-102.667,9.3-36.933,42.386-63.706,61.154-82.6,1.363-1.363,2.743-2.615,4.121-3.867a59.872,59.872,0,1,0-101.05-56.3" transform="translate(-158.359 509.51)"/><path class="d" d="M631.2,533.347a84.4,84.4,0,0,0-29.277-32.8c-2.235-1.252-4.455-2.52-6.673-3.963-31.734-20.353-85.627-47.2-109.8-95.391-24-47.839-13.3-106.725-10.859-144.214.254-3.836.65-7.529,1.189-11.143A84.775,84.775,0,1,0,347.8,316c.745.444,1.49.856,2.235,1.331,32.066,20.179,86.452,47.427,110.894,96.153,24.157,48.155,13.473,107.407,10.827,144.99-.19,2.727-.507,5.342-.84,7.958A84.711,84.711,0,1,0,631.2,533.347" transform="translate(-92.05 300.934)"/><path class="d" d="M353.507,206.2a33.356,33.356,0,1,1,0-47.173,33.322,33.322,0,0,1,0,47.173" transform="translate(-237.023 164.014)"/><path class="d" d="M378.287,225.5a33.356,33.356,0,1,1,0-47.173,33.323,33.323,0,0,1,0,47.173" transform="translate(130.987 450.64)"/><path class="d" d="M368.661,242.9a33.356,33.356,0,1,1,0-47.173,33.322,33.322,0,0,1,0,47.173" transform="translate(-11.97 709.093)"/><path class="d" d="M683.319,377.976a71.708,71.708,0,0,0-32.1-19.37c-2.123-.46-4.247-.951-6.419-1.553-30.973-8.623-81.665-16.992-113.478-50.2-31.544-32.97-37.615-83.662-45.032-114.841-.761-3.186-1.364-6.293-1.839-9.368a72.311,72.311,0,1,0-86.721,89.305c.729.19,1.442.333,2.172.539,24.981,6.721,62.6,13.759,93.173,33.43A129.686,129.686,0,0,1,499,530.052c-1.569,1-3.2,1.854-4.8,2.774-2.076,1.157-4.137,2.3-6.261,3.345-30.561,15.344-66.352,18.641-90.478,22.984-2.2.4-4.359.682-6.531.951a69.946,69.946,0,1,0,79.319,91.366c.555-2.013,1.125-4.058,1.822-6.119,9.828-29.515,20.353-78.1,53.957-107.233,33.4-28.88,82.679-32.32,113.161-37.979,3.107-.586,6.15-1.014,9.13-1.316a69.182,69.182,0,0,0,53.212-54.876c.19-.872.269-1.744.443-2.632a69.17,69.17,0,0,0,.919-7.847A71.735,71.735,0,0,0,683.319,377.976Z" transform="translate(323.456 -129.488)"/><path class="d" d="M456.289,202.946a48.893,48.893,0,1,1-48.869-48.917A48.89,48.89,0,0,1,456.289,202.946Z" transform="translate(683.05 234.98)"/><path class="d" d="M500.424,225.544a83.314,83.314,0,1,1-83.282-83.361A83.314,83.314,0,0,1,500.424,225.544Z" transform="translate(316.139 59.068)"/><path class="d" d="M475.545,233a64.791,64.791,0,1,1-64.784-64.751A64.773,64.773,0,0,1,475.545,233Z" transform="translate(496.803 446.192)"/><path class="d" d="M338.283,259.318a59.232,59.232,0,0,0,17.294,25.5c1.427,1.078,2.853,2.172,4.264,3.376,20.147,17.087,55.1,40.769,67.4,76.482,12.221,35.459-.7,75.388-5.865,101.193-.539,2.647-1.173,5.167-1.871,7.624a59.412,59.412,0,1,0,95.439-36.822c-.475-.38-.951-.729-1.427-1.125-20.4-17.008-55.653-40.991-68.1-77.116-12.3-35.712.634-75.863,5.976-101.732.38-1.871.84-3.662,1.315-5.453a59.373,59.373,0,1,0-114.429,8.069Z" transform="translate(334.543 629.301)"/><path class="d" d="M563.17,176.044a67.76,67.76,0,0,0-17.642,30.688c-.4,2.029-.808,4.042-1.347,6.1-7.5,29.42-14.361,77.417-45.049,108.121-30.466,30.482-78.21,37.234-107.471,44.891-3,.761-5.912,1.394-8.812,1.9a68.271,68.271,0,1,0,86.087,80.032c.142-.681.269-1.363.443-2.044,7.291-29.641,14.314-78.114,45.366-109.166,30.672-30.672,78.67-37.535,108.057-45.049,2.14-.539,4.217-.951,6.309-1.363A68.215,68.215,0,1,0,563.17,176.044" transform="translate(320.554 265.352)"/><path class="d" d="M405.9,192.675a33.356,33.356,0,1,1,0-47.173,33.322,33.322,0,0,1,0,47.173" transform="translate(541.055 -36.788)"/><path class="d" d="M416.924,237.4a33.356,33.356,0,1,1,0-47.173,33.351,33.351,0,0,1,0,47.173" transform="translate(704.788 627.397)"/><path class="d" d="M391.8,250.469a33.357,33.357,0,1,1,0-47.173,33.323,33.323,0,0,1,0,47.173" transform="translate(331.685 821.516)"/><path class="d" d="M580.531,193.613c-5.026,8.8-7.958,29.832-7.958,29.832-2.108,41.355-16.057,92.38-45.746,144.388-29.975,52.483-81.522,74.643-117.393,96.311-3.678,2.2-16.152,9.764-19.766,11.571a99.275,99.275,0,0,0-32.114,34.127c-26.234,45.921-12.015,103.349,31.671,128.314,43.7,24.95,100.385,7.989,126.6-37.931a98.78,98.78,0,0,0,13.03-51.928c-.032-.967-.079-1.918-.079-2.9-.174-42.243-6.863-109.468,23.665-162.934,28.8-50.422,66.163-91.762,100.528-113.319,1.9-1.046,17.246-11.7,22.493-21.336,15.217-27.835,7.243-62.025-18.926-76.973-26.265-14.995-60.266-4.787-76.006,22.778" transform="translate(473.482 381.899)"/></g></g></svg>